<?xml version="1.0" encoding="UTF-8" standalone="no"?>
<!DOCTYPE svg PUBLIC "-//W3C//DTD SVG 1.1//EN"
 "http://www.w3.org/Graphics/SVG/1.1/DTD/svg11.dtd">
<!-- Generated by graphviz version 3.0.0 (20220226.1711)
 -->
<!-- Title: dependencies Pages: 1 -->
<svg width="328pt" height="247pt"
 viewBox="0.00 0.00 328.00 246.80" xmlns="http://www.w3.org/2000/svg" xmlns:xlink="http://www.w3.org/1999/xlink">
<g id="graph0" class="graph" transform="scale(1 1) rotate(0) translate(4 242.8)">
<title>dependencies</title>
<polygon fill="white" stroke="transparent" points="-4,4 -4,-242.8 324,-242.8 324,4 -4,4"/>
<text text-anchor="middle" x="160" y="-8.2" font-family="sans-serif" font-size="14.00">dependencies</text>
<g id="clust1" class="cluster">
<title>cluster_AppModule</title>
<polygon fill="none" stroke="black" stroke-dasharray="1,5" points="8,-32.8 8,-230.8 312,-230.8 312,-32.8 8,-32.8"/>
</g>
<g id="clust7" class="cluster">
<title>cluster_AppModule_bootstrap</title>
<polygon fill="none" stroke="black" points="108,-170.8 108,-222.8 232,-222.8 232,-170.8 108,-170.8"/>
</g>
<g id="clust2" class="cluster">
<title>cluster_AppModule_declarations</title>
<polygon fill="none" stroke="black" points="16,-40.8 16,-92.8 304,-92.8 304,-40.8 16,-40.8"/>
</g>
<!-- AppComponent -->
<g id="node1" class="node">
<title>AppComponent</title>
<polygon fill="#ffffb3" stroke="black" points="295.94,-84.8 190.06,-84.8 190.06,-48.8 295.94,-48.8 295.94,-84.8"/>
<text text-anchor="middle" x="243" y="-62.6" font-family="Times,serif" font-size="14.00">AppComponent</text>
</g>
<!-- AppModule -->
<g id="node3" class="node">
<title>AppModule</title>
<polygon fill="#8dd3c7" stroke="black" points="211.66,-149.8 208.66,-153.8 187.66,-153.8 184.66,-149.8 128.34,-149.8 128.34,-113.8 211.66,-113.8 211.66,-149.8"/>
<text text-anchor="middle" x="170" y="-127.6" font-family="Times,serif" font-size="14.00">AppModule</text>
</g>
<!-- AppComponent&#45;&gt;AppModule -->
<g id="edge1" class="edge">
<title>AppComponent&#45;&gt;AppModule</title>
<path fill="none" stroke="black" d="M201.06,-84.91C201.06,-84.91 201.06,-103.79 201.06,-103.79"/>
<polygon fill="black" stroke="black" points="197.56,-103.79 201.06,-113.79 204.56,-103.79 197.56,-103.79"/>
</g>
<!-- GameBoardComponent -->
<g id="node2" class="node">
<title>GameBoardComponent</title>
<polygon fill="#ffffb3" stroke="black" points="172.47,-84.8 23.53,-84.8 23.53,-48.8 172.47,-48.8 172.47,-84.8"/>
<text text-anchor="middle" x="98" y="-62.6" font-family="Times,serif" font-size="14.00">GameBoardComponent</text>
</g>
<!-- GameBoardComponent&#45;&gt;AppModule -->
<g id="edge2" class="edge">
<title>GameBoardComponent&#45;&gt;AppModule</title>
<path fill="none" stroke="black" d="M150.33,-84.91C150.33,-84.91 150.33,-103.79 150.33,-103.79"/>
<polygon fill="black" stroke="black" points="146.83,-103.79 150.33,-113.79 153.83,-103.79 146.83,-103.79"/>
</g>
<!-- AppComponent  -->
<g id="node4" class="node">
<title>AppComponent </title>
<polygon fill="#80b1d3" stroke="black" points="224.44,-214.8 115.56,-214.8 115.56,-178.8 224.44,-178.8 224.44,-214.8"/>
<text text-anchor="middle" x="170" y="-192.6" font-family="Times,serif" font-size="14.00">AppComponent </text>
</g>
<!-- AppModule&#45;&gt;AppComponent  -->
<g id="edge3" class="edge">
<title>AppModule&#45;&gt;AppComponent </title>
<path fill="none" stroke="black" stroke-dasharray="1,5" d="M170,-149.91C170,-149.91 170,-168.79 170,-168.79"/>
<polygon fill="black" stroke="black" points="166.5,-168.79 170,-178.79 173.5,-168.79 166.5,-168.79"/>
</g>
</g>
</svg>
